<svg xmlns="http://www.w3.org/2000/svg" xmlns:xlink="http://www.w3.org/1999/xlink" width="500" zoomAndPan="magnify" viewBox="0 0 375 374.999991" height="500" preserveAspectRatio="xMidYMid meet" version="1.0"><defs><clipPath id="0d36eb6b3d"><path d="M 37.5 18 L 349 18 L 349 357 L 37.5 357 Z M 37.5 18 " clip-rule="nonzero"/></clipPath></defs><g clip-path="url(#0d36eb6b3d)"><path fill="#fed700" d="M 179.726562 18.191406 C 94.65625 18.191406 37.5 49.703125 37.5 79.128906 C 37.5 108.566406 94.65625 140.089844 179.726562 140.089844 C 264.792969 140.089844 321.929688 108.566406 321.929688 79.128906 C 321.929688 49.703125 264.792969 18.191406 179.726562 18.191406 Z M 37.5 110.359375 L 37.5 147.882812 C 37.5 176.824219 94.65625 207.8125 179.726562 207.8125 C 264.792969 207.8125 321.929688 176.824219 321.929688 147.882812 L 321.929688 110.359375 C 297.0625 135.78125 243.460938 153.636719 179.726562 153.636719 C 115.980469 153.636719 62.375 135.773438 37.5 110.359375 Z M 37.5 180.117188 L 37.5 215.90625 C 37.5 239.296875 74.867188 263.8125 134.109375 272.359375 L 134.769531 268.761719 L 182.160156 268.761719 C 190.464844 268.761719 197.832031 270.871094 203.933594 274.59375 C 204.65625 274.539062 205.398438 274.503906 206.117188 274.449219 L 212.964844 241.671875 L 258.402344 241.671875 L 253.164062 266.765625 C 295.988281 255.589844 321.929688 235.371094 321.929688 215.90625 L 321.929688 180.117188 C 297.0625 205.523438 243.460938 221.355469 179.726562 221.355469 C 115.980469 221.355469 62.375 205.523438 37.5 180.117188 Z M 37.5 248.140625 L 37.5 283.324219 C 37.5 305.082031 69.820312 327.996094 122.007812 338.03125 L 131.609375 285.890625 C 89.640625 280.140625 55.792969 266.832031 37.5 248.140625 Z M 321.929688 248.140625 C 314.214844 256.023438 303.730469 262.949219 291.042969 268.761719 L 321.929688 268.761719 Z M 223.972656 255.21875 L 206.988281 336.484375 L 224.765625 336.484375 L 233.347656 295.851562 L 247.554688 295.851562 C 252.085938 295.851562 255.074219 296.601562 256.46875 298.097656 C 257.859375 299.609375 258.160156 302.460938 257.355469 306.578125 L 250.875 336.484375 L 268.929688 336.484375 L 275.953125 304.128906 C 277.464844 296.375 276.324219 290.679688 272.566406 287.226562 C 268.742188 283.71875 261.988281 282.304688 251.933594 282.304688 L 236.085938 282.304688 L 241.734375 255.21875 Z M 146.039062 282.304688 L 132.308594 356.800781 L 150.230469 356.800781 L 153.804688 336.484375 L 164.941406 336.484375 C 188.277344 336.484375 200.984375 331.078125 205.730469 311.046875 C 209.816406 293.839844 199.375 282.304688 182.160156 282.304688 Z M 288.253906 282.304688 L 274.523438 356.800781 L 292.445312 356.800781 L 296.019531 336.484375 L 307.15625 336.484375 C 330.492188 336.484375 343.199219 331.078125 347.945312 311.046875 C 352.03125 293.839844 341.589844 282.304688 324.375 282.304688 Z M 161.433594 295.851562 L 175.390625 295.851562 C 186.957031 295.851562 189.390625 301.0625 188.789062 306.867188 C 187.238281 321.808594 177.925781 322.9375 167.902344 322.9375 L 156.328125 322.9375 Z M 303.648438 295.851562 L 317.605469 295.851562 C 329.171875 295.851562 331.605469 301.0625 331.003906 306.867188 C 329.453125 321.808594 320.140625 322.9375 310.117188 322.9375 L 298.542969 322.9375 Z M 303.648438 295.851562 " fill-opacity="1" fill-rule="nonzero"/></g></svg>